<mxfile host="app.diagrams.net" agent="Mozilla/5.0 (Macintosh; Intel Mac OS X 10_15_7) AppleWebKit/605.1.15 (KHTML, like Gecko) Version/17.5 Safari/605.1.15" version="24.7.7">
  <diagram name="Page-1" id="JKtT9ijfMeD0fgh-phho">
    <mxGraphModel dx="1377" dy="660" grid="1" gridSize="10" guides="1" tooltips="1" connect="1" arrows="1" fold="1" page="1" pageScale="1" pageWidth="850" pageHeight="1100" math="0" shadow="0">
      <root>
        <mxCell id="0" />
        <mxCell id="1" parent="0" />
        <UserObject label="&lt;font color=&quot;#ffffff&quot; style=&quot;font-size: 8px;&quot;&gt;Move ahead? (#15)&lt;/font&gt;" link="#point23" id="G-RJr6JL06SoVc274rdQ-5">
          <mxCell style="rhombus;whiteSpace=wrap;html=1;strokeColor=none;fillColor=#1b75bb;fontFamily=Figtree;fontSource=https%3A%2F%2Ffonts.googleapis.com%2Fcss%3Ffamily%3DFigtree;fontSize=8;" vertex="1" parent="1">
            <mxGeometry x="330" y="260" width="160" height="80" as="geometry" />
          </mxCell>
        </UserObject>
        <UserObject label="&lt;font style=&quot;font-size: 8px;&quot; data-font-src=&quot;https://fonts.googleapis.com/css?family=Figtree&quot; color=&quot;#ffffff&quot;&gt;Proceed to STUDY&lt;/font&gt;" link="#section_4" id="G-RJr6JL06SoVc274rdQ-6">
          <mxCell style="rounded=0;whiteSpace=wrap;html=1;strokeColor=none;fillColor=#9f79b0;fontFamily=Figtree;fontSource=https%3A%2F%2Ffonts.googleapis.com%2Fcss%3Ffamily%3DFigtree;fontSize=8;" vertex="1" parent="1">
            <mxGeometry x="50" y="640" width="160" height="50" as="geometry" />
          </mxCell>
        </UserObject>
        <UserObject label="&lt;font color=&quot;#ffffff&quot;&gt;Product development process (#14)&lt;/font&gt;&lt;div&gt;&lt;font color=&quot;#ffffff&quot;&gt;• Communicate new group broadly&lt;/font&gt;&lt;/div&gt;&lt;div&gt;&lt;font color=&quot;#ffffff&quot;&gt;• Engage stakeholders/adopters&lt;/font&gt;&lt;/div&gt;&lt;div&gt;&lt;font color=&quot;#ffffff&quot;&gt;• Adhere to GA4GH Best Practices and Code of Conduct&lt;/font&gt;&lt;/div&gt;&lt;div&gt;&lt;font color=&quot;#ffffff&quot;&gt;• Periodically inform delegates of Product Steering Committee who have registered interest to be updated on key developments&lt;/font&gt;&lt;/div&gt;" link="#point24" id="G-RJr6JL06SoVc274rdQ-8">
          <mxCell style="rounded=0;whiteSpace=wrap;html=1;strokeColor=none;fillColor=#4FAEDC;fontFamily=Figtree;fontSource=https%3A%2F%2Ffonts.googleapis.com%2Fcss%3Ffamily%3DFigtree;fontSize=8;" vertex="1" parent="1">
            <mxGeometry x="330" y="110" width="160" height="110" as="geometry" />
          </mxCell>
        </UserObject>
        <UserObject label="&lt;span style=&quot;color: rgb(255, 255, 255); font-size: 8px; background-color: initial;&quot;&gt;Track approved? (#29)&lt;/span&gt;" link="#point29" id="G-RJr6JL06SoVc274rdQ-13">
          <mxCell style="rhombus;whiteSpace=wrap;html=1;strokeColor=none;fillColor=#1b75bb;fontFamily=Figtree;fontSource=https%3A%2F%2Ffonts.googleapis.com%2Fcss%3Ffamily%3DFigtree;fontSize=8;" vertex="1" parent="1">
            <mxGeometry x="560" y="620" width="160" height="80" as="geometry" />
          </mxCell>
        </UserObject>
        <UserObject label="&lt;font color=&quot;#ffffff&quot; style=&quot;font-size: 8px;&quot;&gt;Proceed to APPROVAL&lt;/font&gt;" link="#point30" id="G-RJr6JL06SoVc274rdQ-15">
          <mxCell style="rounded=0;whiteSpace=wrap;html=1;strokeColor=none;fillColor=#4FAEDC;fontFamily=Figtree;fontSource=https%3A%2F%2Ffonts.googleapis.com%2Fcss%3Ffamily%3DFigtree;fontSize=8;" vertex="1" parent="1">
            <mxGeometry x="330" y="390" width="160" height="50" as="geometry" />
          </mxCell>
        </UserObject>
        <mxCell id="G-RJr6JL06SoVc274rdQ-16" style="edgeStyle=orthogonalEdgeStyle;rounded=0;orthogonalLoop=1;jettySize=auto;html=1;exitX=0.5;exitY=1;exitDx=0;exitDy=0;entryX=0.5;entryY=0;entryDx=0;entryDy=0;fontSize=8;fontFamily=Figtree;fontSource=https%3A%2F%2Ffonts.googleapis.com%2Fcss%3Ffamily%3DFigtree;" edge="1" parent="1" source="G-RJr6JL06SoVc274rdQ-17" target="G-RJr6JL06SoVc274rdQ-28">
          <mxGeometry relative="1" as="geometry" />
        </mxCell>
        <UserObject label="&lt;span style=&quot;color: rgb(255, 255, 255); font-size: 8px; background-color: initial;&quot;&gt;Product group agrees&lt;/span&gt;&lt;div style=&quot;font-size: 8px;&quot;&gt;&lt;span style=&quot;color: rgb(255, 255, 255); font-size: 8px; background-color: initial;&quot;&gt;minor candidate version&lt;/span&gt;&lt;/div&gt;&lt;div style=&quot;font-size: 8px;&quot;&gt;&lt;span style=&quot;color: rgb(255, 255, 255); font-size: 8px; background-color: initial;&quot;&gt;is ready? (#31)&lt;/span&gt;&lt;/div&gt;" link="#point31" id="G-RJr6JL06SoVc274rdQ-17">
          <mxCell style="rhombus;whiteSpace=wrap;html=1;strokeColor=none;fillColor=#1b75bb;fontFamily=Figtree;fontSource=https%3A%2F%2Ffonts.googleapis.com%2Fcss%3Ffamily%3DFigtree;fontSize=8;" vertex="1" parent="1">
            <mxGeometry x="470" y="839" width="160" height="80" as="geometry" />
          </mxCell>
        </UserObject>
        <UserObject label="&lt;span style=&quot;color: rgb(255, 255, 255); font-size: 8px; background-color: initial;&quot;&gt;Agree on fix? (#25)&lt;/span&gt;" link="#point25" id="G-RJr6JL06SoVc274rdQ-18">
          <mxCell style="rhombus;whiteSpace=wrap;html=1;strokeColor=none;fillColor=#1b75bb;fontFamily=Figtree;fontSource=https%3A%2F%2Ffonts.googleapis.com%2Fcss%3Ffamily%3DFigtree;fontSize=8;" vertex="1" parent="1">
            <mxGeometry x="250" y="725" width="160" height="80" as="geometry" />
          </mxCell>
        </UserObject>
        <mxCell id="G-RJr6JL06SoVc274rdQ-19" style="edgeStyle=orthogonalEdgeStyle;rounded=0;orthogonalLoop=1;jettySize=auto;html=1;exitX=0.5;exitY=1;exitDx=0;exitDy=0;entryX=0.5;entryY=0;entryDx=0;entryDy=0;fontSize=8;fontFamily=Figtree;fontSource=https%3A%2F%2Ffonts.googleapis.com%2Fcss%3Ffamily%3DFigtree;" edge="1" parent="1" source="G-RJr6JL06SoVc274rdQ-20" target="G-RJr6JL06SoVc274rdQ-23">
          <mxGeometry relative="1" as="geometry" />
        </mxCell>
        <UserObject label="&lt;font color=&quot;#ffffff&quot; style=&quot;font-size: 8px;&quot;&gt;Fast track review (#26)&lt;/font&gt;" link="#point26" id="G-RJr6JL06SoVc274rdQ-20">
          <mxCell style="rounded=0;whiteSpace=wrap;html=1;strokeColor=none;fillColor=#4FAEDC;fontFamily=Figtree;fontSource=https%3A%2F%2Ffonts.googleapis.com%2Fcss%3Ffamily%3DFigtree;fontSize=8;" vertex="1" parent="1">
            <mxGeometry x="250" y="854" width="160" height="50" as="geometry" />
          </mxCell>
        </UserObject>
        <UserObject label="&lt;font color=&quot;#ffffff&quot; style=&quot;font-size: 8px;&quot;&gt;Resolving remaining issues (#28)&lt;/font&gt;" link="#point28" id="G-RJr6JL06SoVc274rdQ-21">
          <mxCell style="rounded=0;whiteSpace=wrap;html=1;strokeColor=none;fillColor=#4FAEDC;fontFamily=Figtree;fontSource=https%3A%2F%2Ffonts.googleapis.com%2Fcss%3Ffamily%3DFigtree;fontSize=8;" vertex="1" parent="1">
            <mxGeometry x="50" y="854" width="160" height="50" as="geometry" />
          </mxCell>
        </UserObject>
        <mxCell id="G-RJr6JL06SoVc274rdQ-22" style="edgeStyle=orthogonalEdgeStyle;rounded=0;orthogonalLoop=1;jettySize=auto;html=1;exitX=0.5;exitY=1;exitDx=0;exitDy=0;entryX=0.5;entryY=0;entryDx=0;entryDy=0;fontSize=8;fontFamily=Figtree;fontSource=https%3A%2F%2Ffonts.googleapis.com%2Fcss%3Ffamily%3DFigtree;" edge="1" parent="1" source="G-RJr6JL06SoVc274rdQ-23" target="G-RJr6JL06SoVc274rdQ-24">
          <mxGeometry relative="1" as="geometry" />
        </mxCell>
        <UserObject label="&lt;font color=&quot;#ffffff&quot; style=&quot;font-size: 8px;&quot;&gt;Approved by PRC? (#27)&lt;/font&gt;" link="#point27" id="G-RJr6JL06SoVc274rdQ-23">
          <mxCell style="rhombus;whiteSpace=wrap;html=1;strokeColor=none;fillColor=#1b75bb;fontFamily=Figtree;fontSource=https%3A%2F%2Ffonts.googleapis.com%2Fcss%3Ffamily%3DFigtree;fontSize=8;" vertex="1" parent="1">
            <mxGeometry x="250" y="949" width="160" height="80" as="geometry" />
          </mxCell>
        </UserObject>
        <mxCell id="G-RJr6JL06SoVc274rdQ-24" value="&lt;span style=&quot;font-size: 8px;&quot;&gt;&lt;font style=&quot;font-size: 8px;&quot;&gt;Approval leads to a patch release&lt;/font&gt;&lt;/span&gt;" style="rounded=1;whiteSpace=wrap;html=1;absoluteArcSize=0;arcSize=60;strokeColor=none;fillColor=#8cc63e;fontColor=#FFFFFF;fontFamily=Figtree;fontSource=https%3A%2F%2Ffonts.googleapis.com%2Fcss%3Ffamily%3DFigtree;fontSize=8;" vertex="1" parent="1">
          <mxGeometry x="250" y="1085" width="160" height="50" as="geometry" />
        </mxCell>
        <mxCell id="G-RJr6JL06SoVc274rdQ-25" value="Yes" style="edgeLabel;html=1;align=center;verticalAlign=middle;resizable=0;points=[];labelBackgroundColor=#E6E6E6;fontFamily=Figtree;fontSource=https%3A%2F%2Ffonts.googleapis.com%2Fcss%3Ffamily%3DFigtree;fontSize=8;" vertex="1" connectable="0" parent="1">
          <mxGeometry x="833" y="751" as="geometry">
            <mxPoint x="-504" y="312" as="offset" />
          </mxGeometry>
        </mxCell>
        <mxCell id="G-RJr6JL06SoVc274rdQ-26" value="&lt;span style=&quot;font-size: 8px;&quot;&gt;&lt;font style=&quot;font-size: 8px;&quot;&gt;End&lt;/font&gt;&lt;/span&gt;" style="rounded=1;whiteSpace=wrap;html=1;absoluteArcSize=0;arcSize=60;strokeColor=none;fillColor=#767676;fontColor=#FFFFFF;fontFamily=Figtree;fontSource=https%3A%2F%2Ffonts.googleapis.com%2Fcss%3Ffamily%3DFigtree;fontSize=8;" vertex="1" parent="1">
          <mxGeometry x="130" y="390" width="160" height="50" as="geometry" />
        </mxCell>
        <mxCell id="G-RJr6JL06SoVc274rdQ-27" style="edgeStyle=orthogonalEdgeStyle;rounded=0;orthogonalLoop=1;jettySize=auto;html=1;exitX=0.5;exitY=1;exitDx=0;exitDy=0;entryX=0.5;entryY=0;entryDx=0;entryDy=0;fontSize=8;fontFamily=Figtree;fontSource=https%3A%2F%2Ffonts.googleapis.com%2Fcss%3Ffamily%3DFigtree;" edge="1" parent="1" source="G-RJr6JL06SoVc274rdQ-28" target="G-RJr6JL06SoVc274rdQ-32">
          <mxGeometry relative="1" as="geometry" />
        </mxCell>
        <UserObject label="&lt;font color=&quot;#ffffff&quot; style=&quot;font-size: 8px;&quot;&gt;Product Review Committee&lt;/font&gt;&lt;div style=&quot;font-size: 8px;&quot;&gt;&lt;font color=&quot;#ffffff&quot; style=&quot;font-size: 8px;&quot;&gt;and public review (#32)&lt;/font&gt;&lt;/div&gt;" link="#point32" id="G-RJr6JL06SoVc274rdQ-28">
          <mxCell style="rounded=0;whiteSpace=wrap;html=1;strokeColor=none;fillColor=#4FAEDC;fontFamily=Figtree;fontSource=https%3A%2F%2Ffonts.googleapis.com%2Fcss%3Ffamily%3DFigtree;fontSize=8;" vertex="1" parent="1">
            <mxGeometry x="470" y="964" width="160" height="50" as="geometry" />
          </mxCell>
        </UserObject>
        <mxCell id="G-RJr6JL06SoVc274rdQ-29" value="Yes" style="edgeLabel;html=1;align=center;verticalAlign=middle;resizable=0;points=[];labelBackgroundColor=#E6E6E6;fontFamily=Figtree;fontSource=https%3A%2F%2Ffonts.googleapis.com%2Fcss%3Ffamily%3DFigtree;fontSize=8;" vertex="1" connectable="0" parent="1">
          <mxGeometry x="560" y="751" as="geometry">
            <mxPoint x="-11" y="193" as="offset" />
          </mxGeometry>
        </mxCell>
        <mxCell id="G-RJr6JL06SoVc274rdQ-30" style="edgeStyle=orthogonalEdgeStyle;rounded=0;orthogonalLoop=1;jettySize=auto;html=1;exitX=0.5;exitY=1;exitDx=0;exitDy=0;entryX=0.5;entryY=0;entryDx=0;entryDy=0;fontSize=8;fontFamily=Figtree;fontSource=https%3A%2F%2Ffonts.googleapis.com%2Fcss%3Ffamily%3DFigtree;" edge="1" parent="1" source="G-RJr6JL06SoVc274rdQ-32" target="G-RJr6JL06SoVc274rdQ-33">
          <mxGeometry relative="1" as="geometry" />
        </mxCell>
        <mxCell id="G-RJr6JL06SoVc274rdQ-31" value="Yes" style="edgeLabel;html=1;align=center;verticalAlign=middle;resizable=0;points=[];fontSize=8;fontFamily=Figtree;fontSource=https%3A%2F%2Ffonts.googleapis.com%2Fcss%3Ffamily%3DFigtree;labelBackgroundColor=#E6E6E6;" vertex="1" connectable="0" parent="G-RJr6JL06SoVc274rdQ-30">
          <mxGeometry x="-0.117" y="3" relative="1" as="geometry">
            <mxPoint x="-3" y="6" as="offset" />
          </mxGeometry>
        </mxCell>
        <UserObject label="&lt;span style=&quot;background-color: initial; color: rgb(255, 255, 255); font-size: 8px;&quot;&gt;Approved by&amp;nbsp;&lt;/span&gt;&lt;div&gt;&lt;span style=&quot;background-color: initial; color: rgb(255, 255, 255); font-size: 8px;&quot;&gt;Product Review Committee?&lt;/span&gt;&lt;/div&gt;&lt;div&gt;&lt;span style=&quot;background-color: initial; color: rgb(255, 255, 255); font-size: 8px;&quot;&gt;(#33)&lt;/span&gt;&lt;/div&gt;" link="#point33" id="G-RJr6JL06SoVc274rdQ-32">
          <mxCell style="rhombus;whiteSpace=wrap;html=1;strokeColor=none;fillColor=#1b75bb;fontFamily=Figtree;fontSource=https%3A%2F%2Ffonts.googleapis.com%2Fcss%3Ffamily%3DFigtree;fontSize=8;" vertex="1" parent="1">
            <mxGeometry x="470" y="1054" width="160" height="80" as="geometry" />
          </mxCell>
        </UserObject>
        <mxCell id="G-RJr6JL06SoVc274rdQ-33" value="&lt;span style=&quot;font-size: 8px;&quot;&gt;&lt;font style=&quot;font-size: 8px;&quot;&gt;Approval leads to a minor version release.&lt;/font&gt;&lt;/span&gt;&lt;div style=&quot;font-size: 8px;&quot;&gt;&lt;span style=&quot;font-size: 8px;&quot;&gt;&lt;font style=&quot;font-size: 8px;&quot;&gt;Product group works with the GA4GH&lt;/font&gt;&lt;/span&gt;&lt;/div&gt;&lt;div style=&quot;font-size: 8px;&quot;&gt;&lt;span style=&quot;font-size: 8px;&quot;&gt;&lt;font style=&quot;font-size: 8px;&quot;&gt;Communications team to promote product.&lt;/font&gt;&lt;/span&gt;&lt;/div&gt;" style="rounded=1;whiteSpace=wrap;html=1;absoluteArcSize=0;arcSize=60;strokeColor=none;fillColor=#8cc63e;fontColor=#FFFFFF;fontFamily=Figtree;fontSource=https%3A%2F%2Ffonts.googleapis.com%2Fcss%3Ffamily%3DFigtree;fontSize=8;" vertex="1" parent="1">
          <mxGeometry x="460" y="1179" width="180" height="50" as="geometry" />
        </mxCell>
        <mxCell id="G-RJr6JL06SoVc274rdQ-35" value="&lt;p style=&quot;line-height: 100%; font-size: 8px;&quot;&gt;Start here&lt;/p&gt;" style="rounded=1;whiteSpace=wrap;absoluteArcSize=0;arcSize=60;fontFamily=Figtree;fontSource=https%3A%2F%2Ffonts.googleapis.com%2Fcss%3Ffamily%3DFigtree;fontSize=8;html=1;" vertex="1" parent="1">
          <mxGeometry x="315" y="30" width="190" height="40" as="geometry" />
        </mxCell>
        <mxCell id="G-RJr6JL06SoVc274rdQ-36" value="Urgent fix" style="edgeLabel;html=1;align=center;verticalAlign=middle;resizable=0;points=[];fontFamily=Figtree;fontSource=https%3A%2F%2Ffonts.googleapis.com%2Fcss%3Ffamily%3DFigtree;labelBackgroundColor=#E6E6E6;fontSize=8;" vertex="1" connectable="0" parent="1">
          <mxGeometry x="330" y="620" as="geometry">
            <mxPoint x="-1" y="-2" as="offset" />
          </mxGeometry>
        </mxCell>
        <mxCell id="G-RJr6JL06SoVc274rdQ-37" value="Continued&lt;div&gt;development&lt;/div&gt;" style="edgeLabel;html=1;align=center;verticalAlign=middle;resizable=0;points=[];fontFamily=Figtree;fontSource=https%3A%2F%2Ffonts.googleapis.com%2Fcss%3Ffamily%3DFigtree;labelBackgroundColor=#E6E6E6;fontSize=8;" vertex="1" connectable="0" parent="1">
          <mxGeometry x="520" y="606" as="geometry">
            <mxPoint x="5" y="-7" as="offset" />
          </mxGeometry>
        </mxCell>
        <mxCell id="G-RJr6JL06SoVc274rdQ-38" value="" style="endArrow=classic;html=1;rounded=0;exitX=0.5;exitY=1;exitDx=0;exitDy=0;entryX=0.5;entryY=0;entryDx=0;entryDy=0;" edge="1" parent="1" source="G-RJr6JL06SoVc274rdQ-18" target="G-RJr6JL06SoVc274rdQ-20">
          <mxGeometry width="50" height="50" relative="1" as="geometry">
            <mxPoint x="430" y="860" as="sourcePoint" />
            <mxPoint x="480" y="810" as="targetPoint" />
          </mxGeometry>
        </mxCell>
        <mxCell id="G-RJr6JL06SoVc274rdQ-39" value="" style="endArrow=classic;html=1;rounded=1;exitX=0.5;exitY=1;exitDx=0;exitDy=0;entryX=0.5;entryY=0;entryDx=0;entryDy=0;curved=0;" edge="1" parent="1" source="G-RJr6JL06SoVc274rdQ-18" target="G-RJr6JL06SoVc274rdQ-21">
          <mxGeometry width="50" height="50" relative="1" as="geometry">
            <mxPoint x="430" y="860" as="sourcePoint" />
            <mxPoint x="480" y="810" as="targetPoint" />
            <Array as="points">
              <mxPoint x="330" y="820" />
              <mxPoint x="130" y="820" />
            </Array>
          </mxGeometry>
        </mxCell>
        <mxCell id="G-RJr6JL06SoVc274rdQ-40" value="Yes" style="edgeLabel;html=1;align=center;verticalAlign=middle;resizable=0;points=[];labelBackgroundColor=#E6E6E6;fontFamily=Figtree;fontSource=https%3A%2F%2Ffonts.googleapis.com%2Fcss%3Ffamily%3DFigtree;fontSize=8;" vertex="1" connectable="0" parent="1">
          <mxGeometry x="648" y="791" as="geometry">
            <mxPoint x="-319" y="42" as="offset" />
          </mxGeometry>
        </mxCell>
        <mxCell id="G-RJr6JL06SoVc274rdQ-41" value="No" style="edgeLabel;html=1;align=center;verticalAlign=middle;resizable=0;points=[];labelBackgroundColor=#E6E6E6;fontFamily=Figtree;fontSize=8;fontSource=https%3A%2F%2Ffonts.googleapis.com%2Fcss%3Ffamily%3DFigtree;" vertex="1" connectable="0" parent="1">
          <mxGeometry x="180" y="553" as="geometry">
            <mxPoint x="126" y="266" as="offset" />
          </mxGeometry>
        </mxCell>
        <mxCell id="G-RJr6JL06SoVc274rdQ-42" value="" style="endArrow=classic;html=1;rounded=1;exitX=0.5;exitY=1;exitDx=0;exitDy=0;entryX=0;entryY=0.5;entryDx=0;entryDy=0;curved=0;" edge="1" parent="1" source="G-RJr6JL06SoVc274rdQ-21" target="G-RJr6JL06SoVc274rdQ-18">
          <mxGeometry width="50" height="50" relative="1" as="geometry">
            <mxPoint x="300" y="480" as="sourcePoint" />
            <mxPoint x="350" y="430" as="targetPoint" />
            <Array as="points">
              <mxPoint x="120" y="530" />
              <mxPoint x="20" y="530" />
              <mxPoint x="20" y="365" />
            </Array>
          </mxGeometry>
        </mxCell>
        <mxCell id="G-RJr6JL06SoVc274rdQ-43" value="" style="endArrow=classic;html=1;rounded=1;exitX=0.5;exitY=1;exitDx=0;exitDy=0;entryX=1;entryY=0.5;entryDx=0;entryDy=0;curved=0;" edge="1" parent="1" source="G-RJr6JL06SoVc274rdQ-23" target="G-RJr6JL06SoVc274rdQ-21">
          <mxGeometry width="50" height="50" relative="1" as="geometry">
            <mxPoint x="200" y="960" as="sourcePoint" />
            <mxPoint x="250" y="910" as="targetPoint" />
            <Array as="points">
              <mxPoint x="330" y="1050" />
              <mxPoint x="230" y="1050" />
              <mxPoint x="230" y="880" />
            </Array>
          </mxGeometry>
        </mxCell>
        <mxCell id="G-RJr6JL06SoVc274rdQ-44" value="No" style="edgeLabel;html=1;align=center;verticalAlign=middle;resizable=0;points=[];labelBackgroundColor=#E6E6E6;fontFamily=Figtree;fontSize=8;fontSource=https%3A%2F%2Ffonts.googleapis.com%2Fcss%3Ffamily%3DFigtree;" vertex="1" connectable="0" parent="1">
          <mxGeometry x="178" y="783" as="geometry">
            <mxPoint x="126" y="266" as="offset" />
          </mxGeometry>
        </mxCell>
        <mxCell id="G-RJr6JL06SoVc274rdQ-47" value="&lt;font color=&quot;#000000&quot; style=&quot;font-size: 8px;&quot;&gt;No:&amp;nbsp;&lt;/font&gt;&lt;div&gt;&lt;font color=&quot;#000000&quot; style=&quot;font-size: 8px;&quot;&gt;return to&amp;nbsp;&lt;/font&gt;&lt;div style=&quot;font-size: 8px;&quot;&gt;&lt;font color=&quot;#000000&quot; style=&quot;font-size: 8px;&quot;&gt;development&lt;/font&gt;&lt;/div&gt;&lt;/div&gt;" style="edgeLabel;html=1;align=center;verticalAlign=middle;resizable=0;points=[];labelBackgroundColor=#E6E6E6;fontColor=#FFFFFF;fontSize=8;fontFamily=Figtree;fontSource=https%3A%2F%2Ffonts.googleapis.com%2Fcss%3Ffamily%3DFigtree;" vertex="1" connectable="0" parent="1">
          <mxGeometry x="516" y="790" as="geometry">
            <mxPoint x="-16" y="139" as="offset" />
          </mxGeometry>
        </mxCell>
        <mxCell id="G-RJr6JL06SoVc274rdQ-48" value="No" style="edgeLabel;html=1;align=center;verticalAlign=middle;resizable=0;points=[];labelBackgroundColor=#E6E6E6;fontFamily=Figtree;fontSize=8;fontSource=https%3A%2F%2Ffonts.googleapis.com%2Fcss%3Ffamily%3DFigtree;" vertex="1" connectable="0" parent="1">
          <mxGeometry x="453" y="664" as="geometry">
            <mxPoint x="126" y="266" as="offset" />
          </mxGeometry>
        </mxCell>
        <mxCell id="G-RJr6JL06SoVc274rdQ-49" value="" style="endArrow=classic;html=1;rounded=1;exitX=0.5;exitY=1;exitDx=0;exitDy=0;curved=0;" edge="1" parent="1" source="G-RJr6JL06SoVc274rdQ-32">
          <mxGeometry width="50" height="50" relative="1" as="geometry">
            <mxPoint x="400" y="1080" as="sourcePoint" />
            <mxPoint x="450" y="920" as="targetPoint" />
            <Array as="points">
              <mxPoint x="550" y="1150" />
              <mxPoint x="450" y="1150" />
            </Array>
          </mxGeometry>
        </mxCell>
        <mxCell id="G-RJr6JL06SoVc274rdQ-50" value="&lt;font color=&quot;#000000&quot; style=&quot;font-size: 8px;&quot;&gt;No:&amp;nbsp;&lt;/font&gt;&lt;div&gt;&lt;font color=&quot;#000000&quot; style=&quot;font-size: 8px;&quot;&gt;return to&amp;nbsp;&lt;/font&gt;&lt;div style=&quot;font-size: 8px;&quot;&gt;&lt;font color=&quot;#000000&quot; style=&quot;font-size: 8px;&quot;&gt;development&lt;/font&gt;&lt;/div&gt;&lt;/div&gt;" style="edgeLabel;html=1;align=center;verticalAlign=middle;resizable=0;points=[];labelBackgroundColor=#E6E6E6;fontColor=#FFFFFF;fontSize=8;fontFamily=Figtree;fontSource=https%3A%2F%2Ffonts.googleapis.com%2Fcss%3Ffamily%3DFigtree;" vertex="1" connectable="0" parent="1">
          <mxGeometry x="516" y="1009" as="geometry">
            <mxPoint x="-16" y="139" as="offset" />
          </mxGeometry>
        </mxCell>
        <mxCell id="G-RJr6JL06SoVc274rdQ-51" value="" style="endArrow=classic;html=1;rounded=1;exitX=0.5;exitY=1;exitDx=0;exitDy=0;entryX=1;entryY=0.5;entryDx=0;entryDy=0;curved=0;" edge="1" parent="1" source="G-RJr6JL06SoVc274rdQ-32" target="G-RJr6JL06SoVc274rdQ-28">
          <mxGeometry width="50" height="50" relative="1" as="geometry">
            <mxPoint x="400" y="1020" as="sourcePoint" />
            <mxPoint x="450" y="970" as="targetPoint" />
            <Array as="points">
              <mxPoint x="550" y="1150" />
              <mxPoint x="650" y="1150" />
              <mxPoint x="650" y="990" />
            </Array>
          </mxGeometry>
        </mxCell>
        <mxCell id="G-RJr6JL06SoVc274rdQ-52" value="&lt;font color=&quot;#000000&quot; style=&quot;font-size: 8px;&quot;&gt;No:&amp;nbsp;&lt;/font&gt;&lt;div&gt;&lt;font color=&quot;#000000&quot; style=&quot;font-size: 8px;&quot;&gt;return to&amp;nbsp;&lt;/font&gt;&lt;div style=&quot;font-size: 8px;&quot;&gt;&lt;font color=&quot;#000000&quot;&gt;review&lt;/font&gt;&lt;/div&gt;&lt;/div&gt;" style="edgeLabel;html=1;align=center;verticalAlign=middle;resizable=0;points=[];labelBackgroundColor=#E6E6E6;fontColor=#FFFFFF;fontSize=8;fontFamily=Figtree;fontSource=https%3A%2F%2Ffonts.googleapis.com%2Fcss%3Ffamily%3DFigtree;" vertex="1" connectable="0" parent="1">
          <mxGeometry x="606" y="1010" as="geometry">
            <mxPoint x="-16" y="139" as="offset" />
          </mxGeometry>
        </mxCell>
        <mxCell id="G-RJr6JL06SoVc274rdQ-53" value="" style="endArrow=classic;html=1;rounded=0;exitX=0.5;exitY=1;exitDx=0;exitDy=0;" edge="1" parent="1" source="G-RJr6JL06SoVc274rdQ-35" target="G-RJr6JL06SoVc274rdQ-8">
          <mxGeometry width="50" height="50" relative="1" as="geometry">
            <mxPoint x="370" y="420" as="sourcePoint" />
            <mxPoint x="420" y="370" as="targetPoint" />
          </mxGeometry>
        </mxCell>
        <mxCell id="G-RJr6JL06SoVc274rdQ-54" value="" style="endArrow=classic;html=1;rounded=0;exitX=0.5;exitY=1;exitDx=0;exitDy=0;entryX=0.5;entryY=0;entryDx=0;entryDy=0;" edge="1" parent="1" source="G-RJr6JL06SoVc274rdQ-8" target="G-RJr6JL06SoVc274rdQ-5">
          <mxGeometry width="50" height="50" relative="1" as="geometry">
            <mxPoint x="290" y="260" as="sourcePoint" />
            <mxPoint x="340" y="210" as="targetPoint" />
          </mxGeometry>
        </mxCell>
        <mxCell id="G-RJr6JL06SoVc274rdQ-55" value="" style="endArrow=classic;html=1;rounded=0;exitX=0.5;exitY=1;exitDx=0;exitDy=0;entryX=0.5;entryY=0;entryDx=0;entryDy=0;" edge="1" parent="1" source="G-RJr6JL06SoVc274rdQ-5" target="G-RJr6JL06SoVc274rdQ-15">
          <mxGeometry width="50" height="50" relative="1" as="geometry">
            <mxPoint x="380" y="400" as="sourcePoint" />
            <mxPoint x="430" y="350" as="targetPoint" />
          </mxGeometry>
        </mxCell>
        <mxCell id="G-RJr6JL06SoVc274rdQ-56" value="" style="endArrow=classic;html=1;rounded=1;exitX=0.5;exitY=1;exitDx=0;exitDy=0;entryX=0.5;entryY=0;entryDx=0;entryDy=0;curved=0;" edge="1" parent="1" source="G-RJr6JL06SoVc274rdQ-5" target="G-RJr6JL06SoVc274rdQ-26">
          <mxGeometry width="50" height="50" relative="1" as="geometry">
            <mxPoint x="380" y="400" as="sourcePoint" />
            <mxPoint x="430" y="350" as="targetPoint" />
            <Array as="points">
              <mxPoint x="410" y="360" />
              <mxPoint x="210" y="360" />
            </Array>
          </mxGeometry>
        </mxCell>
        <mxCell id="G-RJr6JL06SoVc274rdQ-57" value="" style="endArrow=classic;html=1;rounded=1;curved=0;" edge="1" parent="1">
          <mxGeometry width="50" height="50" relative="1" as="geometry">
            <mxPoint x="410" y="340" as="sourcePoint" />
            <mxPoint x="490" y="165" as="targetPoint" />
            <Array as="points">
              <mxPoint x="410" y="360" />
              <mxPoint x="560" y="360" />
              <mxPoint x="560" y="165" />
            </Array>
          </mxGeometry>
        </mxCell>
      </root>
    </mxGraphModel>
  </diagram>
</mxfile>
